# xmcd
#
# Track frame offsets:
# 150
# 13179
# 32430
# 56297
#
# Disc length: 1070 seconds
#
# Revision: 0
# Processed by: cddbd v1.4PL0 Copyright (c) Steve Scherf et al.
# Submitted via: Audion 3.0.2 (http://www.panic.com/audion/)
#
DISCID=24042c04
DTITLE=Records Sampler - Emperor Norton
DYEAR=1900
DGENRE=
TTITLE0=Madame Hollywood
TTITLE1=Walk With Me
TTITLE2=1982
TTITLE3=1234
EXTD=
EXTT0=
EXTT1=
EXTT2=
EXTT3=
PLAYORDER=
